<?xml version="1.0" standalone="no"?>
<!DOCTYPE svg PUBLIC "-//W3C//DTD SVG 20010904//EN"
 "http://www.w3.org/TR/2001/REC-SVG-20010904/DTD/svg10.dtd">
<svg version="1.0" xmlns="http://www.w3.org/2000/svg"
 width="512.000000pt" height="512.000000pt" viewBox="0 0 512.000000 512.000000"
 preserveAspectRatio="xMidYMid meet">
<metadata>
Created by potrace 1.11, written by Peter Selinger 2001-2013
</metadata>
<g transform="translate(0.000000,512.000000) scale(0.100000,-0.100000)"
fill="#000000" stroke="none">
<path d="M650 4373 c-8 -3 -28 -15 -44 -26 -61 -43 -58 27 -57 -1341 0 -688 0
-1270 1 -1293 l0 -43 2010 0 2010 0 0 63 c0 34 1 617 1 1294 0 1367 5 1276
-65 1326 l-31 22 -1905 2 c-1048 1 -1912 -1 -1920 -4z m1949 -105 c11 -28 -9
-64 -33 -62 -32 3 -35 4 -44 22 -16 30 3 62 38 62 23 0 33 -6 39 -22z m1711
-1244 l0 -1094 -1750 0 -1750 0 0 1094 0 1094 1750 0 1750 0 0 -1094z"/>
<path d="M933 3803 c-10 -4 -13 -190 -13 -884 l0 -879 1635 0 c1451 0 1636 2
1641 15 16 41 53 40 -1608 39 -876 0 -1598 1 -1603 3 -8 3 -11 267 -10 845 0
685 -2 844 -13 855 -7 7 -14 13 -15 12 -1 0 -8 -3 -14 -6z"/>
<path d="M3298 3524 c-151 -221 -144 -209 -129 -228 9 -11 30 -16 61 -16 l47
0 0 -545 c0 -300 2 -547 4 -550 5 -5 118 -8 234 -6 l70 1 -1 550 0 550 38 1
c58 2 60 3 71 21 12 17 11 19 -181 296 -42 61 -70 92 -82 92 -14 0 -53 -49
-132 -166z"/>
<path d="M2035 2987 c-13 -7 -15 -67 -15 -407 l0 -400 80 -1 c44 0 96 -1 115
-1 19 0 52 1 73 1 l38 1 0 399 c-1 220 -4 403 -8 407 -11 10 -265 11 -283 1z"/>
<path d="M2669 2738 c-18 -7 -19 -19 -19 -283 l0 -275 70 -1 c39 0 99 0 135 0
36 0 73 0 83 0 16 1 17 20 17 271 0 191 -4 273 -12 281 -13 13 -241 19 -274 7z"/>
<path d="M1445 2530 l-50 -5 -3 -172 -2 -173 75 -1 c41 0 91 -1 110 -1 19 0
55 1 78 1 l44 1 0 165 c0 122 -3 167 -12 175 -15 12 -161 18 -240 10z"/>
<path d="M564 1562 c-30 -6 -564 -543 -564 -568 0 -11 8 -28 18 -37 17 -16
208 -17 2545 -17 l2526 0 15 22 c9 12 16 29 16 38 0 8 -123 138 -274 289
l-274 274 -1994 1 c-1097 1 -2003 0 -2014 -2z m3916 -223 c41 -49 75 -95 76
-102 0 -6 -6 -20 -14 -29 -14 -17 -62 -18 -735 -18 l-719 0 4 -25 c3 -14 0
-29 -6 -34 -11 -9 -1016 -13 -1048 -5 -13 4 -16 12 -11 35 l6 29 -721 0 -721
0 -15 22 c-14 20 -9 50 13 68 3 3 31 34 61 70 30 36 59 68 65 72 5 4 838 8
1850 7 l1840 0 75 -90z"/>
<path d="M0 886 c0 -54 23 -100 63 -124 l34 -22 2463 0 c2452 0 2463 0 2495
20 39 24 65 74 65 125 0 33 -2 36 -22 29 -13 -4 -489 -8 -1059 -8 -972 -1
-1036 -2 -1053 -18 -16 -17 -50 -18 -424 -18 -372 0 -410 2 -432 18 -23 16
-91 17 -1060 18 -569 1 -1043 5 -1052 9 -15 6 -18 2 -18 -29z m487 -52 c3 -8
-1 -22 -9 -30 -13 -14 -17 -14 -31 1 -9 8 -14 22 -11 30 8 20 43 19 51 -1z
m140 0 c9 -25 -26 -49 -44 -31 -8 7 -11 21 -7 30 8 22 43 22 51 1z m137 1 c3
-8 -2 -22 -11 -30 -14 -15 -18 -15 -31 -1 -8 8 -12 22 -9 30 8 20 43 21 51 1z"/>
</g>
</svg>
